<svg xmlns="http://www.w3.org/2000/svg" xmlns:xlink="http://www.w3.org/1999/xlink" width="512" height="512" viewBox="0 0 512 512"><defs><clipPath id="b"><rect width="512" height="512"/></clipPath></defs><g id="a" clip-path="url(#b)"><rect width="512" height="512" fill="rgba(131,131,131,0)"/><g transform="translate(8.003 0)"><path d="M-2.347,10.082,275.179-85.71s5.986,3.666,14.072,18.39c4.552,8.289,4.11,15.178,8.678,25.3s9.594,15.2,9.594,15.2L-2.347,75.667A35.392,35.392,0,0,0-1.278,64.088c-.382-7.017-2.6-12.134-2.6-20.494C-3.876,28.2-2.347,10.082-2.347,10.082Z" transform="translate(103.377 217.719)" fill="none"/><path d="M105,0S80.32,4.414,53.679,9.906C22.7,16.29-7.866,48.612-6.446,52.39c1.389,3.694,30.292-18.5,60.408-17.18C80.177,36.361,105,36.772,105,36.772" transform="translate(6.493 238.072)" fill="none" stroke="#fff" stroke-width="20"/><path d="M-86.118,151.755S-80.7,95.637-54.063,53.485C-40.2,31.545-35.634,24.832-15.892,8.675S11.95-11.45,45.03-13.6c15.713-1.022,49.261,5.188,71.4,13.67,42.169,16.156,77.149,53.417,77.149,53.417" transform="translate(187.072 79.025)" fill="none" stroke="#fff" stroke-width="20"/><path d="M1.588,13.342-5.369,109.1s-58.968,47.774-29.974,60.329c17.454,7.558,39.889-19.5,75.035-24.129,22.924-3.019,52.529,13.109,92.543,0s21.2-25.086,67.511-52.437c20.515-12.117,142.292-17.742,163.366-54.584,11.762-20.562-4.867-32.691-17.76-63.724s-33.81-60.406-33.81-60.406" transform="translate(99.502 276.045)" fill="none" stroke="#fff" stroke-width="20"/><path d="M113.651,0S78.963,4.43,47.567,9.634C21.824,13.9-1.15,46.856.045,50.033c1.336,3.555,30.335-20.79,59.328-17.9,27.389,2.734,54.278,4.636,54.278,4.636" transform="matrix(-0.839, 0.545, -0.545, -0.839, 495.993, 116.387)" fill="none" stroke="#fff" stroke-width="20"/><g transform="matrix(0.985, -0.174, 0.174, 0.985, 190.167, 159.633)" fill="#fff"><path d="M 14.7766284942627 40.74065017700195 C 13.90709590911865 40.14994049072266 12.13345909118652 37.9593391418457 10.91882133483887 33.85964584350586 C 12.88246154785156 31.77590179443359 14.65818214416504 29.0047779083252 14.65818214416504 25.24455833435059 C 14.65818214416504 21.38801002502441 12.76234436035156 18.72672271728516 10.85660266876221 16.97455596923828 C 12.10593795776367 12.66079139709473 14.11315822601318 10.29328727722168 15.00304794311523 9.967242240905762 C 16.01644897460938 10.52752590179443 19.78466415405273 15.95017528533936 19.78466415405273 25.41890907287598 C 19.78466415405273 34.38080215454102 16.40914344787598 39.71813583374023 14.7766284942627 40.74065017700195 Z" stroke="none"/><path d="M 14.7643985748291 -1.1444091796875e-05 C 23.05987167358398 -1.1444091796875e-05 29.7846622467041 11.38043594360352 29.7846622467041 25.41890907287598 C 29.7846622467041 39.45738220214844 23.05987167358398 50.83782958984375 14.7643985748291 50.83782958984375 C 7.655187606811523 50.83782958984375 1.699556350708008 42.47946166992188 0.09647750854492188 30.91732978820801 C -0.1183376312255859 29.37956619262695 4.658187866210938 27.25206756591797 4.658187866210938 25.24456787109375 C 4.658187866210938 23.74243545532227 -0.1788654327392578 22.44511985778809 0.005109786987304688 20.67630386352539 C 1.201240539550781 9.075302124023438 7.356555938720703 -1.1444091796875e-05 14.7643985748291 -1.1444091796875e-05 Z" stroke="none" fill="#fff"/></g><path d="M1.182,34.84V31.2s40.468,6.06,60.892,0C88.359,23.4,104.958,0,104.958,0" transform="translate(209.304 203.41)" fill="none" stroke="#fff" stroke-width="20"/><g transform="matrix(0.985, -0.174, 0.174, 0.985, 267.327, 144.343)" fill="#fff"><path d="M 14.7766284942627 40.74065017700195 C 13.90709590911865 40.14994049072266 12.13345909118652 37.9593391418457 10.91882133483887 33.85964584350586 C 12.88246154785156 31.77590179443359 14.65818214416504 29.0047779083252 14.65818214416504 25.24455833435059 C 14.65818214416504 21.38801002502441 12.76234436035156 18.72672271728516 10.85660266876221 16.97455596923828 C 12.10593795776367 12.66079139709473 14.11315822601318 10.29328727722168 15.00304794311523 9.967242240905762 C 16.01644897460938 10.52752590179443 19.78466415405273 15.95017528533936 19.78466415405273 25.41890907287598 C 19.78466415405273 34.38080215454102 16.40914344787598 39.71813583374023 14.7766284942627 40.74065017700195 Z" stroke="none"/><path d="M 14.7643985748291 -1.1444091796875e-05 C 23.05987167358398 -1.1444091796875e-05 29.7846622467041 11.38043594360352 29.7846622467041 25.41890907287598 C 29.7846622467041 39.45738220214844 23.05987167358398 50.83782958984375 14.7643985748291 50.83782958984375 C 7.655187606811523 50.83782958984375 1.699556350708008 42.47946166992188 0.09647750854492188 30.91732978820801 C -0.1183376312255859 29.37956619262695 4.658187866210938 27.25206756591797 4.658187866210938 25.24456787109375 C 4.658187866210938 23.74243545532227 -0.1788654327392578 22.44511985778809 0.005109786987304688 20.67630386352539 C 1.201240539550781 9.075302124023438 7.356555938720703 -1.1444091796875e-05 14.7643985748291 -1.1444091796875e-05 Z" stroke="none" fill="#fff"/></g></g></g></svg>